<svg id="Capa_1" enable-background="new 0 0 512 512" height="512" viewBox="0 0 512 512" width="512" xmlns="http://www.w3.org/2000/svg"><g><path d="m447.992 208c0 106.04-85.96 192-192 192s-192-85.96-192-192 85.96-193 192-193 192 86.96 192 193z" fill="#f9f9f9"/><path d="m447.992 208c0 106.04-85.96 192-192 192v-385c106.04 0 192 86.96 192 193z" fill="#e2dff4"/><path d="m255.992 0c-114.056 0-209.574 93.936-206.93 213.46 0 .06.01.11.01.17 1.57 58.668 27.905 111.645 68.24 148.05 49.62 44.807 91.125 92.234 126.28 143.76 5.945 8.736 18.853 8.739 24.8 0 35.143-51.509 76.644-98.939 126.28-143.76 40.286-36.36 66.668-89.302 68.24-148.05 0-.06.01-.11.01-.17 2.645-119.597-92.941-213.46-206.93-213.46zm176.94 212.67c0 .05-.01.1-.01.15-2.575 94.837-80.407 172.18-176.93 172.18-96.676 0-174.358-77.466-176.93-172.18 0-.05-.01-.1-.01-.15-2.579-99.818 77.369-182.67 176.94-182.67 99.434 0 179.522 82.709 176.94 182.67z" fill="#ff405c"/><path d="m462.992 208c0 60.011-25.992 115.477-68.32 153.68-49.62 44.807-91.125 92.234-126.28 143.76-2.79 4.1-7.44 6.56-12.4 6.56v-127c98.367 0 177-80.189 177-177 0-98.15-79.4-178-177-178v-30c114.14 0 207 93.31 207 208z" fill="#b10042"/><path d="m175.992 304c-8.284 0-15-6.716-15-15v-24c0-8.284 6.716-15 15-15s15 6.716 15 15v24c0 8.284-6.716 15-15 15z" fill="#0a789b"/><path d="m335.992 304c-8.284 0-15-6.716-15-15v-24c0-8.284 6.716-15 15-15s15 6.716 15 15v24c0 8.284-6.716 15-15 15z" fill="#08475e"/><path d="m270.992 120v24c0 8.28-6.72 15-15 15s-15-6.72-15-15v-24c0-8.28 6.72-15 15-15s15 6.72 15 15z" fill="#ffdd54"/><path d="m255.992 159v-54c8.28 0 15 6.72 15 15v24c0 8.28-6.72 15-15 15z" fill="#ffb454"/><path d="m350.542 204.36-13.16-52.64c-3.34-13.38-15.31-22.72-29.1-22.72h-104.58c-13.79 0-25.76 9.34-29.1 22.72l-13.16 52.64c-1.12 4.48-.12 9.23 2.73 12.87 2.84 3.64 7.2 5.77 11.82 5.77h160c4.62 0 8.98-2.13 11.82-5.77 2.85-3.64 3.85-8.39 2.73-12.87z" fill="#bcfbff"/><path d="m347.812 217.23c-2.84 3.64-7.2 5.77-11.82 5.77h-80v-94h52.29c13.79 0 25.76 9.34 29.1 22.72l13.16 52.64c1.12 4.48.12 9.23-2.73 12.87z" fill="#acceff"/><path d="m336.992 201h-162c-16.54 0-30 13.46-30 30v34c0 8.28 6.72 15 15 15h192c8.28 0 15-6.72 15-15v-34c0-16.54-13.46-30-30-30z" fill="#ffb454"/><path d="m366.992 231v34c0 8.28-6.72 15-15 15h-96v-79h81c16.54 0 30 13.46 30 30z" fill="#ff8659"/></g></svg>